{
  "accessors": [
    {
      "bufferView": 0,
      "componentType": 5123,
      "count": 35316,
      "max": [
        35315.0
      ],
      "min": [
        0.0
      ],
      "name": "buffer-0-accessor-indices-buffer-0-mesh-0",
      "type": "SCALAR"
    },
    {
      "bufferView": 1,
      "componentType": 5126,
      "count": 9804,
      "max": [
        2.784305,
        4.214751,
        0.248756
      ],
      "min": [
        -3.727344,
        -3.006159,
        -0.309222
      ],
      "name": "buffer-0-accessor-position-buffer-0-mesh-0",
      "type": "VEC3"
    },
    {
      "bufferView": 1,
      "byteOffset": 117648,
      "componentType": 5126,
      "count": 9804,
      "name": "buffer-0-accessor-normal-buffer-0-mesh-0",
      "type": "VEC3"
    },
    {
      "bufferView": 1,
      "byteOffset": 235296,
      "componentType": 5126,
      "count": 9804,
      "name": "buffer-0-accessor-color-buffer-0-mesh-0",
      "type": "VEC3"
    }
  ],
  "asset": {
    "generator": "Open3D",
    "version": "2.0"
  },
  "bufferViews": [
    {
      "buffer": 0,
      "byteLength": 70632,
      "name": "buffer-0-bufferview-ushort",
      "target": 34963
    },
    {
      "buffer": 0,
      "byteLength": 352944,
      "byteOffset": 70632,
      "byteStride": 12,
      "name": "buffer-0-bufferview-vec3",
      "target": 34962
    }
  ],
  "buffers": [
    {
      "byteLength": 423576,
      "uri": "data:application/octet-stream;base64,"
    }
  ],
  "meshes": [
    {
      "primitives": [
        {
          "attributes": {
            "COLOR_0": 3,
            "NORMAL": 2,
            "POSITION": 1
          },
          "indices": 0,
          "mode": 4
        }
      ]
    }
  ],
  "nodes": [
    {
      "mesh": 0
    }
  ],
  "scene": 0,
  "scenes": [
    {
      "nodes": [
        0
      ]
    }
  ]
}
