# Created by Open3D 
# object name: geometry
# number of vertices: 141
# number of triangles: 107
v 4.18001 2.11704 0.378578 0.85 0.24 0.28
vn 0.987283 -0.15897 -0.000855712
v -4.28087 -10.9558 -0.213375 0.85 0.24 0.28
vn 0.0695365 -0.00384362 -0.997572
v -4.97006 -5.20075 -0.379641 0.85 0.24 0.28
vn 0.0913782 -0.00345063 -0.99581
v -4.97004 -5.18915 -0.261611 0.85 0.24 0.28
vn 0.0681954 -0.00344036 -0.997666
v 4.18011 6.89145 0.8657 0.85 0.24 0.28
vn 0.184974 -0.00024786 -0.982744
v 4.18009 6.86689 0.766989 0.85 0.24 0.28
vn 0.995075 -0.088949 0.0437368
v 4.18002 6.79174 0.234575 0.85 0.24 0.28
vn 0.848287 0.000127369 0.529537
v 4.18 6.78772 0.09091 0.85 0.24 0.28
vn 0.853093 0.000128249 0.521759
v -3.868 0.099832 -0.0009035 0.85 0.24 0.28
vn 0.999999 0.00156169 -3.04572e-05
v -2.72842 7.40012 -0.236088 0.85 0.24 0.28
vn -0.118659 -0.959478 -0.255582
v 4.15096 6.7414 0.376536 0.85 0.24 0.28
vn 0.304847 -0.947691 0.0946064
v 4.15093 6.72789 0.138459 0.85 0.24 0.28
vn 0.853092 9.98512e-05 0.521761
v 3.98313 -10.9066 0.136501 0.85 0.24 0.28
vn -0.113402 0.957619 0.264775
v -2.202 -10.997 -0.174534 0.85 0.24 0.28
vn 0.00818827 -0.839716 0.542964
v -2.78201 7.48387 -0.446027 0.85 0.24 0.28
vn -0.0193979 -0.929031 -0.369494
v -4.22215 -10.9555 -0.209256 0.85 0.24 0.28
vn 0.0699903 -0.00349831 -0.997542
v -1.54928 7.48386 -0.213747 0.85 0.24 0.28
vn 0.0410961 -0.831536 -0.553948
v -1.54927 7.392 -0.041221 0.85 0.24 0.28
vn -0.0125711 -0.95573 -0.293977
v -1.54927 7.3744 0.0343065 0.85 0.24 0.28
vn -0.040581 -0.983451 -0.176573
v -1.54927 7.37 0.090772 0.85 0.24 0.28
vn -0.0586903 -0.995185 -0.0784935
v 1.82391 7.48379 0.421757 0.85 0.24 0.28
vn 0.0266957 -0.864031 0.502731
v 1.82392 7.37292 0.13174 0.85 0.24 0.28
vn 0.000285272 -0.0453242 0.998972
v 4.18001 2.11654 0.474927 0.85 0.24 0.28
vn 0.984408 -0.175867 0.00327594
v 4.07299 -10.9005 0.153043 0.85 0.24 0.28
vn -0.113402 0.957619 0.264775
v 4.17611 2.09283 0.378279 0.85 0.24 0.28
vn 0.984336 -0.176279 0.00302712
v -0.0852993 -10.9066 0.0890325 0.85 0.24 0.28
vn 0.0336718 0.268093 -0.962804
v -2.11768 -10.9765 -0.138872 0.85 0.24 0.28
vn -0.0486158 -0.861261 0.505833
v -3.86806 0.136747 -0.0009145 0.85 0.24 0.28
vn 0.999999 0.00156174 -3.03956e-05
v -1.5069 7.4141 -0.0932525 0.85 0.24 0.28
vn 0.0320063 -0.893639 -0.447643
v 1.86977 7.4804 0.413106 0.85 0.24 0.28
vn 0.0361259 -0.865887 0.498934
v 1.8677 7.43379 0.331776 0.85 0.24 0.28
vn 0.0411955 -0.870559 0.490336
v 1.86856 7.39806 0.237943 0.85 0.24 0.28
vn -0.000126492 -0.0868519 0.996221
v 4.18005 6.76313 0.474922 0.85 0.24 0.28
vn 0.994703 -0.0792188 0.065504
v 4.18 6.69889 0.090927 0.85 0.24 0.28
vn 0.853092 9.98512e-05 0.521761
v -4.97004 -5.17362 -0.261664 0.85 0.24 0.28
vn 0.0681954 -0.00344036 -0.997666
v 4.15099 6.76689 0.568329 0.85 0.24 0.28
vn 0.984478 -0.157694 0.0770402
v 4.18011 6.80106 0.865718 0.85 0.24 0.28
vn 0.184979 -0.000196388 -0.982743
v -3.81979 7.39819 -0.272229 0.85 0.24 0.28
vn 0.999319 -0.0364165 -0.00599866
v -3.81978 7.38584 -0.181151 0.85 0.24 0.28
vn 0.999321 -0.0365639 -0.00459809
v -3.81978 7.37704 -0.09037 0.85 0.24 0.28
vn 0.999351 -0.0358957 -0.00311523
v -3.81977 7.37177 0.000214 0.85 0.24 0.28
vn 0.999712 -0.0239557 -0.00147496
v -2.44968 7.43366 -0.263049 0.85 0.24 0.28
vn -0.0261237 -0.934723 -0.354414
v -3.86807 0.135088 -0.184532 0.85 0.24 0.28
vn 0.999659 0.0260541 -0.001957
v -2.78199 7.38143 -0.075282 0.85 0.24 0.28
vn -0.00180511 0.0401409 0.999192
v -3.86801 0.0980915 -0.184519 0.85 0.24 0.28
vn 0.999991 0.00332636 0.00278674
v -2.36053 7.4141 -0.19307 0.85 0.24 0.28
vn -0.0294168 -0.945288 -0.324908
v -3.81979 7.41412 -0.363704 0.85 0.24 0.28
vn 0.999925 -0.0120336 -0.00215038
v 2.1104 7.43148 0.353893 0.85 0.24 0.28
vn -0.00096387 -0.0718271 0.997417
v 4.17177 5.06068 0.109972 0.85 0.24 0.28
vn 0.986447 0.164069 -0.00202059
v -3.86856 0.326042 -0.0926445 0.85 0.24 0.28
vn 0.999739 0.0225239 -0.00371345
v -2.202 -10.9679 -0.121131 0.85 0.24 0.28
vn 0.0292559 -0.913446 0.405907
v -4.93966 -5.21819 -0.376791 0.85 0.24 0.28
vn 0.0913782 -0.00345063 -0.99581
v -4.93964 -5.20655 -0.259473 0.85 0.24 0.28
vn 0.0681954 -0.00344036 -0.997666
v -3.86806 0.136955 0.090695 0.85 0.24 0.28
vn 0.999999 0.00156461 -2.27227e-05
v -2.30613 7.43335 -0.271131 0.85 0.24 0.28
vn -0.0356236 -0.937723 -0.345553
v -1.12474 7.48385 -0.133768 0.85 0.24 0.28
vn 0.108767 -0.763027 -0.63715
v -4.28963 -10.9854 -0.418684 0.85 0.24 0.28
vn 0.115874 -0.00388866 -0.993256
v 2.11508 7.39607 0.243588 0.85 0.24 0.28
vn 0.00113164 -0.0792425 0.996855
v -4.97005 -5.18519 -0.379694 0.85 0.24 0.28
vn 0.0913782 -0.00345063 -0.99581
v -3.18633 7.44051 -0.444107 0.85 0.24 0.28
vn 0.999758 -0.0201905 -0.00871096
v -3.18632 7.39782 -0.289631 0.85 0.24 0.28
vn 0.0021621 0.134591 0.990899
v -3.18632 7.37577 -0.174947 0.85 0.24 0.28
vn -0.000326146 0.194478 0.980907
v -3.1863 7.35381 0.090717 0.85 0.24 0.28
vn 0.001224 0.0377236 0.999287
v 1.86857 7.37899 0.132805 0.85 0.24 0.28
vn 0.000500906 -0.0572676 0.998359
v -1.90961 7.40423 -0.140344 0.85 0.24 0.28
vn 0.996291 -0.0804595 -0.0304945
v 1.82391 7.43483 0.337848 0.85 0.24 0.28
vn 0.034626 -0.865523 0.499672
v 4.0575 -10.8852 0.090915 0.85 0.24 0.28
vn -0.113402 0.957619 0.264775
v -4.22215 -11.0071 -0.410703 0.85 0.24 0.28
vn 0.11632 -0.00354723 -0.993205
v -4.28087 -11.0074 -0.417579 0.85 0.24 0.28
vn 0.115874 -0.00388866 -0.993256
v -3.868 0.10005 0.090705 0.85 0.24 0.28
vn 0.999999 0.00156459 -2.27322e-05
v -2.782 7.42388 -0.276075 0.85 0.24 0.28
vn 0.0126614 0.882915 0.469362
v -3.18631 7.36084 -0.060843 0.85 0.24 0.28
vn -0.00248391 0.248439 0.968644
v 4.15095 6.73346 0.28116 0.85 0.24 0.28
vn 0.978107 -0.0442014 0.203355
v 4.18009 6.77686 0.767006 0.85 0.24 0.28
vn 0.162054 -0.000195418 -0.986782
v -3.18631 7.35557 0.014978 0.85 0.24 0.28
vn 0.993016 0.117906 0.00428453
v 0.114024 0.673941 0.0709466 0.85 0.24 0.28
vn -0.361756 -0.10424 -0.926427
v -2.782 7.39818 -0.175315 0.85 0.24 0.28
vn 0.0744263 0.99082 0.112859
v -3.86806 0.136126 -0.0926235 0.85 0.24 0.28
vn 0.999999 0.0015471 -3.88111e-05
v -0.00966039 0.73597 0.132693 0.85 0.24 0.28
vn -0.393552 0.0669491 -0.916861
v -3.87001 -0.085472 -0.276901 0.85 0.24 0.28
vn 0.994448 0.105196 -0.00254272
v 4.18002 6.70285 0.234592 0.85 0.24 0.28
vn 0.848286 0.000100374 0.529539
v -1.90961 7.42375 -0.18712 0.85 0.24 0.28
vn 0.99811 -0.0557559 -0.0258581
v 4.18004 6.75198 0.378553 0.85 0.24 0.28
vn 0.969981 -0.243163 -0.0029999
v -3.86746 -0.112136 -0.369269 0.85 0.24 0.28
vn 0.994477 0.10491 -0.0031138
v -2.782 7.4569 -0.377645 0.85 0.24 0.28
vn -0.0162846 -0.930078 -0.367001
v 0.0645972 0.719074 0.0923267 0.85 0.24 0.28
vn -0.442965 0.0234405 -0.896232
v 0.195077 0.671125 0.0448524 0.85 0.24 0.28
vn -0.3215 -0.165731 -0.932294
v -4.28964 -10.9338 -0.214067 0.85 0.24 0.28
vn 0.0695365 -0.00384362 -0.997572
v 1.82391 7.39197 0.23427 0.85 0.24 0.28
vn 0.00025957 -0.0491825 0.99879
v 0.00486073 0.672132 0.116248 0.85 0.24 0.28
vn -0.342997 0.15396 -0.926634
v 1.46809 7.46526 0.321211 0.85 0.24 0.28
vn -0.00330958 -0.0293327 0.999564
v 0.0648135 0.670365 0.0919151 0.85 0.24 0.28
vn -0.40335 -0.0510123 -0.913623
v 2.10572 7.38021 0.128711 0.85 0.24 0.28
vn 0.000204248 -0.0271704 0.999631
v -3.18633 7.41733 -0.366616 0.85 0.24 0.28
vn 0.998896 0.0454725 0.0118037
v -3.86738 0.101408 -0.276676 0.85 0.24 0.28
vn 0.999356 0.0358771 -0.000150993
v -1.90961 7.36459 0.0217005 0.85 0.24 0.28
vn 0.999428 -0.0332263 -0.00634432
v 0.116651 1.08433 0.0645152 0.85 0.24 0.28
vn -0.405058 0.0480776 -0.913026
v -1.12474 7.39817 -0.020517 0.85 0.24 0.28
vn 0.0484135 -0.895852 -0.441708
v 0.121068 0.72674 0.0608735 0.85 0.24 0.28
vn -0.369267 -0.127037 -0.9206
v 4.18 5.01097 0.090927 0.85 0.24 0.28
vn 0.986447 0.164069 -0.00202059
v -1.50626 7.36741 0.090766 0.85 0.24 0.28
vn -0.0586935 -0.995185 -0.0784959
v -1.50608 7.3918 -0.045618 0.85 0.24 0.28
vn -0.0154318 -0.955269 -0.295336
v 0.0601191 1.09256 0.0945746 0.85 0.24 0.28
vn -0.416659 -0.0191189 -0.908862
v 4.15097 6.75253 0.472223 0.85 0.24 0.28
vn 0.319618 -0.939704 0.121656
v 4.18001 5.01209 0.186669 0.85 0.24 0.28
vn 0.99118 0.129372 -0.0287348
v 0.115975 1.15281 0.0724158 0.85 0.24 0.28
vn -0.339538 0.0776646 -0.937381
v 4.17416 2.08578 0.474379 0.85 0.24 0.28
vn 0.982457 -0.186396 0.0059039
v -2.36408 7.43916 -0.279969 0.85 0.24 0.28
vn -0.0119733 -0.937412 -0.348017
v 2.11039 7.47801 0.451245 0.85 0.24 0.28
vn -0.0016499 -0.0462694 0.998928
v -3.68518 7.38584 -0.171743 0.85 0.24 0.28
vn 0.994012 0.107893 0.0173022
v 1.46809 7.38001 0.123473 0.85 0.24 0.28
vn -0.000877949 -0.0362134 0.999344
v -1.50627 7.4555 -0.167983 0.85 0.24 0.28
vn 0.0411898 -0.860142 -0.508388
v -1.90961 7.38216 -0.070663 0.85 0.24 0.28
vn 0.996183 -0.0848516 -0.0204726
v -3.86491 -0.133848 -0.276443 0.85 0.24 0.28
vn 0.994503 0.104677 -0.00257456
v -2.73244 7.4522 -0.36949 0.85 0.24 0.28
vn -0.0125001 -0.941691 -0.336248
v -1.12473 7.37 0.090776 0.85 0.24 0.28
vn 0.003368 -0.98973 -0.142907
v -1.12474 7.3782 0.03523 0.85 0.24 0.28
vn 0.0114028 -0.970541 -0.240668
v -1.12474 7.43487 -0.0768337 0.85 0.24 0.28
vn 0.0869597 -0.802149 -0.590757
v -1.50626 7.3718 0.0358023 0.85 0.24 0.28
vn -0.0437787 -0.983326 -0.1765
v -3.86854 0.284906 -0.092644 0.85 0.24 0.28
vn 0.999989 0.00388275 0.0027502
v 4.15103 6.82977 0.860239 0.85 0.24 0.28
vn 0.184979 -0.000196388 -0.982743
v -1.54927 7.44527 -0.1557 0.85 0.24 0.28
vn 0.0406106 -0.861138 -0.506747
v -1.54927 7.4141 -0.098201 0.85 0.24 0.28
vn 0.0326443 -0.895945 -0.442963
v -3.87 0.338754 -0.184665 0.85 0.24 0.28
vn 0.99929 0.0372734 -0.00550035
v -1.17837 7.37 0.0907597 0.85 0.24 0.28
vn 0.00337802 -0.989732 -0.142898
v -1.17837 7.3782 0.0327144 0.85 0.24 0.28
vn 0.0116371 -0.970418 -0.241151
v -1.17348 7.43212 -0.0798882 0.85 0.24 0.28
vn 0.0860762 -0.805244 -0.586663
v -1.18814 7.4771 -0.138021 0.85 0.24 0.28
vn 0.108883 -0.763594 -0.636449
v -1.17837 7.39817 -0.0255413 0.85 0.24 0.28
vn 0.0487101 -0.895134 -0.443128
v -3.68517 7.37 0.090694 0.85 0.24 0.28
vn 0.00260654 0.0809513 0.996715
v -3.68517 7.37177 0.00334133 0.85 0.24 0.28
vn 0.993693 0.112013 0.00531715
v -3.68518 7.37704 -0.0841057 0.85 0.24 0.28
vn 0.99413 0.107553 0.0117096
v -3.68519 7.39819 -0.259667 0.85 0.24 0.28
vn 0.996185 0.0845009 0.0218111
v -3.68519 7.41412 -0.347974 0.85 0.24 0.28
vn 0.999698 -0.0241873 -0.00433937
v -3.86801 0.09918 -0.0926115 0.85 0.24 0.28
vn 0.999999 0.001547 -3.88362e-05
v -0.165643 -10.9063 0.090803 0.85 0.24 0.28
vn 0.0263436 0.32609 -0.944972
v -3.86807 0.293303 -0.18453 0.85 0.24 0.28
vn 0.999652 0.0263948 0.000256284
v -0.165643 -10.9417 0.0744988 0.85 0.24 0.28
vn 0.0263436 0.32609 -0.944972
v -2.73244 7.47916 -0.436684 0.85 0.24 0.28
vn -0.0228876 -0.928928 -0.369552
v 4.15101 6.80545 0.762225 0.85 0.24 0.28
vn 0.978755 -0.065509 -0.194289
v 0.0646659 1.15104 0.0918747 0.85 0.24 0.28
vn -0.373906 0.0395161 -0.926624
f 1//1 23//23 25//25
f 23//23 107//107 25//25
f 2//2 88//88 16//16
f 3//3 59//59 52//52
f 4//4 35//35 53//53
f 5//5 37//37 121//121
f 6//6 74//74 140//140
f 7//7 73//73 81//81
f 8//8 12//12 34//34
f 9//9 28//28 70//70
f 9//9 78//78 28//28
f 9//9 135//135 78//78
f 135//135 43//43 78//78
f 135//135 45//45 43//43
f 45//45 95//95 43//43
f 28//28 54//54 70//70
f 11//11 83//83 104//104
f 83//83 33//33 104//104
f 33//33 36//36 104//104
f 13//13 24//24 67//67
f 14//14 27//27 51//51
f 15//15 139//139 85//85
f 139//139 115//115 85//85
f 17//17 112//112 122//122
f 112//112 29//29 122//122
f 29//29 123//123 122//122
f 29//29 102//102 123//123
f 102//102 18//18 123//123
f 102//102 119//119 18//18
f 119//119 19//19 18//18
f 119//119 20//20 19//19
f 119//119 101//101 20//20
f 26//26 138//138 136//136
f 30//30 66//66 31//31
f 46//46 108//108 55//55
f 49//49 105//105 100//100
f 50//50 120//120 137//137
f 137//137 124//124 50//50
f 56//56 127//127 128//128
f 56//56 118//118 127//127
f 118//118 98//98 127//127
f 98//98 129//129 127//127
f 98//98 126//126 129//129
f 98//98 117//117 126//126
f 117//117 125//125 126//126
f 117//117 116//116 125//125
f 57//57 68//68 69//69
f 76//76 92//92 86//86
f 92//92 90//90 86//86
f 90//90 79//79 86//86
f 86//86 99//99 76//76
f 99//99 87//87 76//76
f 80//80 114//114 84//84
f 97//97 103//103 141//141
f 141//141 106//106 97//97
f 115//115 10//10 85//85
f 115//115 42//42 10//10
f 85//85 60//60 15//15
f 85//85 94//94 60//60
f 94//94 60//60 133//133
f 133//133 61//61 94//94
f 133//133 110//110 61//61
f 110//110 62//62 61//61
f 110//110 132//132 62//62
f 132//132 72//72 62//62
f 72//72 71//71 62//62
f 72//72 77//77 71//71
f 72//72 44//44 77//77
f 132//132 131//131 72//72
f 131//131 75//75 72//72
f 131//131 130//130 75//75
f 130//130 63//63 75//75
f 132//132 131//131 41//41
f 41//41 40//40 132//132
f 40//40 110//110 132//132
f 40//40 39//39 110//110
f 39//39 133//133 110//110
f 39//39 38//38 133//133
f 38//38 134//134 133//133
f 38//38 47//47 134//134
f 17//17 128//128 112//112
f 123//123 82//82 122//122
f 123//123 65//65 82//82
f 65//65 55//55 82//82
f 123//123 18//18 65//65
f 18//18 113//113 65//65
f 18//18 19//19 113//113
f 19//19 96//96 113//113
f 102//102 126//126 119//119
f 29//29 129//129 102//102
f 29//29 127//127 129//129
f 29//29 112//112 127//127
f 31//31 109//109 30//30
f 109//109 21//21 30//30
f 21//21 66//66 30//30
f 21//21 91//91 66//66
f 31//31 48//48 109//109
f 48//48 58//58 109//109
f 48//48 32//32 58//58
f 32//32 64//64 58//58
f 64//64 93//93 58//58
f 32//32 22//22 64//64
f 32//32 89//89 22//22
f 89//89 111//111 22//22
f 32//32 31//31 89//89
f 31//31 66//66 89//89
f 32//32 48//48 31//31
